<?xml version="1.0" encoding="UTF-8"?>
<svg width="321px" height="121px" viewBox="0 0 321 121" version="1.1" xmlns="http://www.w3.org/2000/svg" xmlns:xlink="http://www.w3.org/1999/xlink">
    <!-- Generator: Sketch 50.2 (55047) - http://www.bohemiancoding.com/sketch -->
    <title>H2O</title>
    <desc>Created with Sketch.</desc>
    <defs></defs>
    <g id="Styles/Logo" stroke="none" stroke-width="1" fill="none" fill-rule="evenodd">
        <g id="H2O" transform="translate(-1.000000, 0.000000)">
            <g id="Group-3">
                <g id="Group-2" transform="translate(0.433957, 0.278592)">
                    <polygon id="Path" fill="#000000" points="30.7957252 73.3521074 69.0841597 73.3521074 69.0841597 118.6261 99.5071406 118.6261 99.5071406 4.69648094 69.0841597 4.69648094 69.0841597 50.8640389 30.7957252 50.8640389 30.7957252 4.69648094 0.66955383 4.69648094 0.66955383 118.6261 30.7957252 118.6261"></polygon>
                    <polygon id="Path-Copy" fill="#000000" points="99.5071401 50.8640388 99.5071406 4.69648094 69.0841597 4.69648094 69.0841597 50.8640388"></polygon>
                    <path d="M145.00032,42.6932187 C145.00032,26.6368165 152.843474,22.7014238 159.431724,22.7014238 C166.804289,22.7014238 171.510182,27.423895 171.510182,36.2391747 C171.510182,43.9525444 167.431742,50.7214198 154.255242,63.1572608 L112.52966,102.353772 L112.52966,118.882421 L203.196526,118.882421 L203.196526,94.9552338 L157.549367,94.9552338 L157.549367,94.6404024 L177.00039,77.0098431 C193.941604,61.5831037 203.353389,51.9807455 203.353389,34.3501862 C203.353389,15.3028855 190.961205,0.505808946 160.529766,0.505808946 C130.098326,0.505808946 115.03947,16.7196269 114.568881,42.6932187 L145.00032,42.6932187 Z" id="H2O" fill="#121212"></path>
                    <path d="M213.734403,61.0346794 C213.734403,25.1641103 234.106223,1.84824047 267.865237,1.84824047 C303.370408,1.84824047 321.559532,24.4168068 321.559532,61.0346794 C321.559532,97.0547091 302.060791,120.221118 267.865237,120.221118 C231.341476,120.221118 213.734403,97.5030912 213.734403,61.0346794 Z M267.719724,98.6987769 C282.416537,98.6987769 289.546674,86.2935384 289.546674,61.0346794 C289.546674,35.7758203 280.524868,23.0716605 267.719724,23.0716605 C253.022912,23.0716605 245.892775,35.7758203 245.892775,61.0346794 C245.892775,86.4429991 252.295347,98.6987769 267.719724,98.6987769 Z" id="Combined-Shape" fill="#000000"></path>
                </g>
            </g>
        </g>
    </g>
</svg>